<?xml version="1.0" encoding="utf-8"?>
<!-- Generator: Adobe Illustrator 16.0.0, SVG Export Plug-In . SVG Version: 6.00 Build 0)  -->
<!DOCTYPE svg PUBLIC "-//W3C//DTD SVG 1.1//EN" "http://www.w3.org/Graphics/SVG/1.1/DTD/svg11.dtd">
<svg version="1.1" id="Layer_1" xmlns="http://www.w3.org/2000/svg" xmlns:xlink="http://www.w3.org/1999/xlink" x="0px" y="0px"
	 width="100px" height="100px" viewBox="0 0 100 100" enable-background="new 0 0 100 100" xml:space="preserve">
<g>
	<path fill="#299DF4" d="M-172.45,36.624c-1.409,0.833-2.966,1.44-4.625,1.768c-1.329-1.414-3.224-2.3-5.314-2.3
		c-4.022,0-7.281,3.259-7.281,7.281c0,0.57,0.063,1.127,0.187,1.657c-6.05-0.301-11.415-3.2-15.008-7.606
		c-0.628,1.076-0.986,2.328-0.986,3.662c0,2.524,1.285,4.754,3.241,6.06c-1.195-0.037-2.316-0.366-3.298-0.912
		c-0.002,0.03-0.002,0.063-0.002,0.094c0,3.526,2.508,6.471,5.843,7.138c-0.614,0.168-1.255,0.258-1.92,0.258
		c-0.468,0-0.924-0.047-1.368-0.131c0.927,2.891,3.613,4.997,6.8,5.055c-2.491,1.954-5.63,3.118-9.044,3.118
		c-0.587,0-1.166-0.033-1.736-0.103c3.222,2.065,7.051,3.272,11.163,3.272c13.394,0,20.717-11.096,20.717-20.717
		c0-0.315-0.008-0.63-0.021-0.943c1.422-1.026,2.656-2.308,3.632-3.768c-1.306,0.578-2.709,0.968-4.182,1.144
		C-174.149,39.752-172.994,38.322-172.45,36.624z"/>
	<path fill="#299DF4" d="M-190,8.225c-23.035,0-41.776,18.739-41.776,41.774S-213.035,91.775-190,91.775
		s41.776-18.741,41.776-41.776S-166.965,8.225-190,8.225z M-190,86.035c-19.87,0-36.036-16.166-36.036-36.036
		S-209.87,13.964-190,13.964s36.036,16.165,36.036,36.035S-170.13,86.035-190,86.035z"/>
</g>
<g>
	<path fill="#3B589D" d="M-301.81,43.641l-0.432,5.749h-5.605v19.257h-7.377V49.39h-3.735v-5.749h3.735V39.33v-1.245
		c0,0-0.264-6.364,7.377-6.708c3.713-0.166,6.806,0.671,6.806,0.671l-0.785,5.652c0,0-6.021-1.866-6.021,1.771v4.169H-301.81z"/>
	<path fill="#3B589D" d="M-310.001,91.775c-23.033,0-41.774-18.741-41.774-41.776s18.741-41.774,41.774-41.774
		c23.035,0,41.776,18.739,41.776,41.774S-286.966,91.775-310.001,91.775z M-310.001,13.964c-19.87,0-36.035,16.165-36.035,36.035
		s16.165,36.036,36.035,36.036c19.872,0,36.036-16.166,36.036-36.036S-290.129,13.964-310.001,13.964z"/>
</g>
<g>
	<path fill="#D64631" d="M-77.374,47.231v5.754h8.038c-0.618,3.468-3.623,5.99-8.038,5.99c-4.868,0-8.823-4.118-8.823-8.988
		c0-4.865,3.955-8.978,8.823-8.978c2.193,0,4.157,0.757,5.704,2.23v0.012l4.16-4.159c-2.557-2.379-5.883-3.842-9.864-3.842
		c-8.149,0-14.749,6.6-14.749,14.744c0,8.152,6.6,14.754,14.749,14.754c8.519,0,14.158-5.994,14.158-14.419
		c0-1.08-0.102-2.113-0.284-3.099H-77.374z"/>
	<polygon fill="#D64631" points="-52.485,43.547 -56.172,43.547 -56.172,48.156 -60.783,48.156 -60.783,51.842 -56.172,51.842 
		-56.172,56.453 -52.485,56.453 -52.485,51.842 -47.876,51.842 -47.876,48.156 -52.485,48.156 	"/>
	<path fill="#D64631" d="M-69.999,8.225c-23.035,0-41.776,18.739-41.776,41.774s18.741,41.776,41.776,41.776
		s41.774-18.741,41.774-41.776S-46.964,8.225-69.999,8.225z M-69.999,86.035c-19.87,0-36.036-16.166-36.036-36.036
		s16.166-36.035,36.036-36.035s36.034,16.165,36.034,36.035S-50.129,86.035-69.999,86.035z"/>
</g>
<linearGradient id="SVGID_1_" gradientUnits="userSpaceOnUse" x1="20.4736" y1="79.5264" x2="79.526" y2="20.474">
	<stop  offset="0" style="stop-color:#FFBD00"/>
	<stop  offset="0.4002" style="stop-color:#CA3744"/>
	<stop  offset="1" style="stop-color:#803DDF"/>
</linearGradient>
<path fill="url(#SVGID_1_)" d="M68.143,37.455c-0.488-1.257-1.145-2.326-2.207-3.391c-1.066-1.063-2.133-1.72-3.393-2.209
	c-1.219-0.471-2.611-0.796-4.648-0.888c-2.041-0.095-2.695-0.115-7.895-0.115s-5.855,0.021-7.896,0.115
	c-2.037,0.092-3.428,0.417-4.646,0.888c-1.262,0.489-2.328,1.146-3.395,2.209c-1.063,1.064-1.717,2.134-2.205,3.391
	c-0.473,1.219-0.799,2.612-0.891,4.649c-0.094,2.042-0.117,2.694-0.117,7.895s0.023,5.853,0.117,7.895
	c0.092,2.04,0.418,3.431,0.891,4.648c0.488,1.26,1.143,2.329,2.205,3.392c1.066,1.065,2.133,1.721,3.395,2.211
	c1.219,0.471,2.609,0.796,4.646,0.89c2.041,0.091,2.697,0.115,7.896,0.115s5.854-0.024,7.895-0.115
	c2.037-0.094,3.43-0.419,4.648-0.89c1.26-0.49,2.326-1.146,3.393-2.211c1.063-1.063,1.719-2.132,2.207-3.392
	c0.477-1.218,0.795-2.608,0.889-4.648c0.096-2.042,0.117-2.694,0.117-7.895s-0.021-5.853-0.117-7.895
	C68.938,40.067,68.619,38.674,68.143,37.455z M65.588,57.738c-0.086,1.865-0.398,2.88-0.662,3.556
	c-0.346,0.894-0.76,1.53-1.432,2.199c-0.672,0.671-1.307,1.086-2.201,1.436c-0.678,0.262-1.688,0.571-3.555,0.657
	c-2.02,0.094-2.625,0.112-7.738,0.112c-5.115,0-5.721-0.019-7.738-0.112c-1.869-0.086-2.879-0.396-3.557-0.657
	c-0.893-0.35-1.529-0.765-2.199-1.436c-0.67-0.669-1.086-1.306-1.434-2.199c-0.26-0.676-0.572-1.69-0.66-3.556
	c-0.092-2.021-0.109-2.625-0.109-7.739c0-5.112,0.018-5.718,0.109-7.735c0.088-1.867,0.4-2.882,0.66-3.557
	c0.348-0.893,0.762-1.533,1.434-2.201c0.67-0.67,1.307-1.087,2.199-1.433c0.678-0.264,1.688-0.575,3.557-0.66
	c2.02-0.091,2.623-0.111,7.738-0.111c5.113,0,5.719,0.021,7.738,0.111c1.867,0.085,2.877,0.396,3.555,0.66
	c0.895,0.346,1.529,0.763,2.201,1.433c0.672,0.668,1.086,1.309,1.432,2.201c0.264,0.675,0.576,1.689,0.662,3.557
	c0.09,2.018,0.109,2.623,0.109,7.735C65.697,55.113,65.678,55.717,65.588,57.738z M50,40.169c-5.434,0-9.834,4.398-9.834,9.83
	s4.4,9.834,9.834,9.834c5.432,0,9.832-4.402,9.832-9.834S55.432,40.169,50,40.169z M50,56.384c-3.527,0-6.383-2.859-6.383-6.385
	c0-3.524,2.855-6.383,6.383-6.383c3.525,0,6.381,2.858,6.381,6.383C56.381,53.524,53.525,56.384,50,56.384z M62.52,39.78
	c0,1.267-1.029,2.298-2.299,2.298s-2.297-1.031-2.297-2.298c0-1.271,1.027-2.301,2.297-2.301S62.52,38.51,62.52,39.78z
	 M49.998,8.225c-23.035,0-41.773,18.739-41.773,41.774s18.738,41.776,41.773,41.776c23.037,0,41.777-18.741,41.777-41.776
	S73.035,8.225,49.998,8.225z M49.998,86.035c-19.869,0-36.033-16.166-36.033-36.036s16.164-36.035,36.033-36.035
	c19.871,0,36.037,16.165,36.037,36.035S69.869,86.035,49.998,86.035z"/>
<g>
	<path fill="#BB1721" d="M-59.221,154.703c-2.369-2.229-5.414-3.267-7.566-3.527c-2.057-0.247-5.549-0.408-9.277,1.167
		c-4.008,1.695-5.9,4.466-6.816,5.885c-0.918,1.418-1.904,4.221-1.82,6.573c0.084,2.339,0.439,3.726,1.318,5.309
		c1.061,1.9,2.629,2.601,2.943,2.769c0.318,0.167,0.662,0.219,0.93,0.06c0.332-0.201,0.365-0.561,0.416-0.678
		s0.361-1.39,0.451-1.775c0.107-0.469-0.021-0.61-0.75-1.553c-0.91-1.177-1.303-3.396-0.9-5.665
		c0.225-1.285,0.811-2.694,1.582-3.889c0.592-0.913,1.307-1.69,1.971-2.236c1.535-1.26,4.43-2.678,8.002-2.377
		c3.57,0.301,5.516,1.761,6.832,3.629c1.318,1.87,1.602,4.989,0.918,8.576c-0.684,3.588-2.152,5.407-3.119,6.308
		c-0.969,0.901-1.889,1.436-3.656,1.421c-1.973-0.021-3.104-1.638-3.27-2.837c-0.098-0.702-0.018-1.251,0.816-4.039
		c0.969-3.232,1.336-4.288,1.053-5.957c-0.322-1.891-2-2.603-3.42-2.32c-1.502,0.301-3.121,1.786-3.506,4.307
		c-0.41,2.69,0.6,4.736,0.6,4.736s-1.617,6.859-1.717,7.293s-1.318,5.074-1.471,6.876c-0.148,1.804,0.193,5.294,0.26,5.794
		c0.02,0.141,0.051,0.236,0.09,0.298c0.055,0.091,0.191,0.187,0.361,0.095c0.121-0.064,0.273-0.312,0.389-0.459
		c0.15-0.2,0.826-1.102,1.488-2.146c0.49-0.776,0.963-1.648,1.268-2.287c0.717-1.503,1.02-2.771,1.02-2.771l1.426-5.514
		c0.936,1.635,3.152,2.595,4.947,2.67c1.957,0.082,4.279-0.335,6.502-1.922c2.217-1.582,3.621-4.078,4.197-5.48
		c0.504-1.229,0.994-2.755,1.223-4.389c0.186-1.293,0.242-2.374,0.201-3.763C-55.391,159.821-56.914,156.874-59.221,154.703z"/>
	<path fill="#BB1721" d="M-70,128.225c-23.035,0-41.775,18.739-41.775,41.774s18.74,41.776,41.775,41.776
		s41.775-18.741,41.775-41.776S-46.965,128.225-70,128.225z M-70,206.035c-19.869,0-36.035-16.166-36.035-36.036
		S-89.869,133.964-70,133.964c19.871,0,36.035,16.165,36.035,36.035S-50.129,206.035-70,206.035z"/>
</g>
<g>
	<path fill="#38BD4B" d="M-310.001,128.225c-23.035,0-41.774,18.74-41.774,41.774c0,23.035,18.739,41.776,41.774,41.776
		s41.776-18.741,41.776-41.776C-268.225,146.965-286.966,128.225-310.001,128.225z M-310.001,206.035
		c-19.87,0-36.034-16.166-36.034-36.036s16.164-36.035,36.034-36.035s36.036,16.165,36.036,36.035S-290.131,206.035-310.001,206.035
		z"/>
	<path fill="#38BD4B" d="M-322.802,156.397c-6.699,6.699-7.419,17.105-2.174,24.608l-2.3,7.074l7.072-2.302
		c7.504,5.245,17.91,4.524,24.608-2.173c7.512-7.514,7.512-19.694,0-27.208C-303.107,148.887-315.289,148.887-322.802,156.397z
		 M-297.839,176.74c-0.176,1.223-0.329,1.398-1.308,2.258c-1.047,0.914-2.42,1.271-3.42,1.383c-0.997,0.11-2.218-0.045-4.525-0.934
		c-2.31-0.887-5.015-2.529-7.5-4.859c-2.487-2.33-5.55-7.101-5.638-9.32s0.858-3.75,1.591-4.726
		c0.732-0.978,1.502-0.938,2.832-0.927c0.808,0.009,0.985,0.298,1.153,0.658c0.434,0.934,1.665,3.727,1.776,4.004
		c0.131,0.332,0.363,0.688,0.03,1.465c-0.334,0.775-1.563,2.012-1.563,2.012c-0.242,0.296-0.235,0.614,0.186,1.191
		c0.422,0.576,1.629,2.309,3.484,3.912c1.36,1.176,3.887,2.387,4.29,2.53c0.518,0.185,0.711-0.097,0.711-0.097
		s1.496-1.787,1.939-2.338c0.479-0.598,0.951-0.34,0.951-0.34l4.521,2.174c0.266,0.122,0.393,0.215,0.495,0.334
		c0.147,0.17,0.135,0.51,0.135,0.51L-297.839,176.74z"/>
</g>
<g>
	<path fill="#E12603" d="M183.377,37.846c-8.65-0.678-18.104-0.678-26.75,0c-2.705,0.33-4.744,2.15-5.266,4.828
		c-0.613,4.678-0.613,9.975-0.002,14.652c0.523,2.678,2.563,4.497,5.268,4.828c8.646,0.679,18.1,0.678,26.75,0
		c2.701-0.333,4.738-2.147,5.264-4.828c0.609-4.68,0.609-9.973,0-14.652C188.115,39.994,186.078,38.18,183.377,37.846z
		 M165.416,55.151V44.85l9.168,5.15L165.416,55.151z"/>
	<path fill="#E12603" d="M170,8.225c-23.035,0-41.775,18.74-41.775,41.774c0,23.035,18.74,41.776,41.775,41.776
		s41.775-18.741,41.775-41.776C211.775,26.965,193.035,8.225,170,8.225z M170,86.035c-19.871,0-36.035-16.166-36.035-36.036
		S150.129,13.965,170,13.965c19.869,0,36.035,16.164,36.035,36.034S189.869,86.035,170,86.035z"/>
</g>
<g>
	<path fill="#1276BA" d="M-190.001,128.225c-23.035,0-41.774,18.74-41.774,41.774c0,23.035,18.739,41.777,41.774,41.777
		c23.035,0,41.777-18.742,41.777-41.777C-148.224,146.965-166.966,128.225-190.001,128.225z M-190.001,206.036
		c-19.87,0-36.034-16.166-36.034-36.037c0-19.87,16.164-36.034,36.034-36.034c19.871,0,36.037,16.164,36.037,36.034
		C-153.964,189.87-170.13,206.036-190.001,206.036z"/>
	<rect x="-205.405" y="163.853" fill="#1276BA" width="6.749" height="21.711"/>
	<path fill="#1276BA" d="M-201.987,154.438c-2.179,0-3.596,1.466-3.596,3.374c0,1.866,1.376,3.375,3.508,3.375
		c2.263,0,3.64-1.509,3.64-3.375C-198.48,155.903-199.813,154.438-201.987,154.438z"/>
	<path fill="#1276BA" d="M-182.19,163.362c-3.636,0-5.812,2.087-6.702,3.505h-0.135l-0.311-3.015h-5.857
		c0.086,1.951,0.176,4.218,0.176,6.926v14.785h6.749v-12.521c0-0.621,0.043-1.243,0.223-1.688c0.487-1.242,1.597-2.53,3.462-2.53
		c2.442,0,3.421,1.91,3.421,4.708v12.031h6.748v-12.83C-174.417,166.338-177.745,163.362-182.19,163.362z"/>
</g>
<g>
	<path fill-rule="evenodd" clip-rule="evenodd" fill="#E54D8C" d="M170,128.225c-23.035,0-41.775,18.74-41.775,41.774
		c0,23.035,18.74,41.776,41.775,41.776s41.775-18.741,41.775-41.776C211.775,146.965,193.035,128.225,170,128.225z M170,206.035
		c-19.871,0-36.035-16.166-36.035-36.036s16.164-36.034,36.035-36.034c19.869,0,36.035,16.164,36.035,36.034
		S189.869,206.035,170,206.035z"/>
	<path fill-rule="evenodd" clip-rule="evenodd" fill="#E54D8C" d="M177.383,172.345c2.648,7.27,3.725,13.188,3.932,14.419
		c4.543-3.067,7.777-7.928,8.68-13.554C189.303,172.991,183.727,171.33,177.383,172.345z"/>
	<path fill-rule="evenodd" clip-rule="evenodd" fill="#E54D8C" d="M173.457,173.324c-11.422,3.975-15.521,11.886-15.885,12.629
		c3.432,2.674,7.748,4.27,12.43,4.27c2.805,0,5.479-0.572,7.91-1.606c-0.303-1.775-1.479-7.958-4.32-15.336
		C173.547,173.294,173.502,173.309,173.457,173.324z"/>
	<path fill-rule="evenodd" clip-rule="evenodd" fill="#E54D8C" d="M171.418,170.176c0.264-0.084,0.529-0.164,0.797-0.239
		c-0.508-1.149-1.063-2.3-1.643-3.433c-10.111,3.022-19.926,2.896-20.811,2.877c-0.006,0.206-0.012,0.412-0.012,0.619
		c0,5.193,1.973,9.937,5.205,13.521C155.416,182.738,160.973,173.549,171.418,170.176z"/>
	<path fill-rule="evenodd" clip-rule="evenodd" fill="#E54D8C" d="M168.9,163.394c-3.355-5.956-6.975-10.964-7.508-11.696
		c-5.668,2.67-9.9,7.886-11.213,14.16C151.084,165.869,159.428,165.906,168.9,163.394z"/>
	<path fill-rule="evenodd" clip-rule="evenodd" fill="#E54D8C" d="M183.424,154.872c-3.576-3.168-8.277-5.095-13.422-5.095
		c-1.635,0-3.225,0.195-4.746,0.563c0.561,0.748,4.236,5.749,7.555,11.838C180.014,159.482,183.063,155.391,183.424,154.872z"/>
	<path fill-rule="evenodd" clip-rule="evenodd" fill="#E54D8C" d="M174.369,165.185c0.471,0.964,0.922,1.943,1.342,2.929
		c0.15,0.351,0.295,0.698,0.438,1.045c6.738-0.847,13.434,0.51,14.1,0.65c-0.045-4.773-1.752-9.156-4.572-12.598
		C185.248,157.787,181.855,162.131,174.369,165.185z"/>
</g>
<g>
	<path fill="#37475D" d="M50,128.225c-23.035,0-41.775,18.741-41.775,41.774c0,23.035,18.74,41.776,41.775,41.776
		s41.775-18.741,41.775-41.776C91.775,146.966,73.035,128.225,50,128.225z M50,206.035c-19.871,0-36.035-16.164-36.035-36.036
		c0-19.87,16.164-36.034,36.035-36.034c19.869,0,36.035,16.164,36.035,36.034C86.035,189.871,69.869,206.035,50,206.035z"/>
	<path fill="#37475D" d="M58.584,179.734c-0.105-0.303-0.258-0.469-0.494-0.527c-0.252-0.063-0.533,0.021-0.854,0.149
		c-0.43,0.174-1.291,0.44-2.166,0.462c-0.91,0-2.387-0.619-2.387-2.857v-8.914h5.584c0.369,0,0.668-0.299,0.668-0.667v-5.472
		c0-0.37-0.299-0.667-0.668-0.667h-5.557v-7.709c0-0.37-0.301-0.669-0.67-0.669h-4.748c-0.637,0-1.023,0.356-1.074,1.093
		c-0.193,2.754-1.494,6.375-5.646,7.839c-0.451,0.16-0.754,0.586-0.754,1.068v4.552c0,0.368,0.299,0.669,0.668,0.669h3.184v9.64
		c0,3.47,1.758,9.413,9.842,9.413h0.266c2.404-0.039,5.094-0.88,6.254-2.119c0.246-0.263,0.145-0.637,0.023-0.98L58.584,179.734z"/>
</g>
</svg>
